<?xml version="1.0" encoding="utf-8"?>
<!-- Generator: Adobe Illustrator 25.0.1, SVG Export Plug-In . SVG Version: 6.00 Build 0)  -->
<svg version="1.1" id="Camada_1" xmlns="http://www.w3.org/2000/svg" xmlns:xlink="http://www.w3.org/1999/xlink" x="0px" y="0px"
	 viewBox="0 0 120 24" style="enable-background:new 0 0 120 24;" xml:space="preserve">
<style type="text/css">
	.st0{fill:#FFFFFF;}
</style>
<path d="M17.4-9.4c0,0.4-0.1,0.7-0.4,0.9l-1.8,1.8c-0.2,0.2-0.6,0.4-0.9,0.4s-0.7-0.1-0.9-0.4l-3.9-3.9L5.5-6.7
	C5.2-6.4,4.9-6.3,4.6-6.3S3.9-6.4,3.7-6.7L1.8-8.5C1.6-8.7,1.5-9,1.5-9.4c0-0.4,0.1-0.7,0.4-0.9l3.9-3.9l-3.9-3.9
	c-0.2-0.2-0.4-0.6-0.4-0.9c0-0.4,0.1-0.7,0.4-0.9l1.8-1.8c0.2-0.2,0.6-0.4,0.9-0.4s0.7,0.1,0.9,0.4l3.9,3.9l3.9-3.9
	c0.2-0.2,0.6-0.4,0.9-0.4s0.7,0.1,0.9,0.4L17-20c0.2,0.2,0.4,0.6,0.4,0.9s-0.1,0.7-0.4,0.9l-3.9,3.9l3.9,3.9
	C17.3-10,17.4-9.7,17.4-9.4z"/>
<path class="st0" d="M57.9-6l-8.7-8.7c-0.3-0.3-0.5-0.7-0.5-1.2s0.2-0.9,0.5-1.2l8.7-8.7c0.3-0.3,0.7-0.5,1.2-0.5
	c0.5,0,0.9,0.2,1.2,0.5l1,1c0.3,0.3,0.5,0.7,0.5,1.2c0,0.5-0.2,0.9-0.5,1.2L54.9-16l6.5,6.5c0.3,0.3,0.5,0.7,0.5,1.2
	c0,0.5-0.2,0.9-0.5,1.2l-1,1c-0.3,0.3-0.7,0.5-1.2,0.5C58.7-5.5,58.3-5.7,57.9-6L57.9-6z"/>
<path class="st0" d="M110.7-16c0,0.5-0.2,0.9-0.5,1.2L101.5-6c-0.3,0.3-0.7,0.5-1.2,0.5c-0.5,0-0.9-0.2-1.2-0.5l-1-1
	c-0.3-0.3-0.5-0.8-0.5-1.2c0-0.5,0.2-0.9,0.5-1.2l6.5-6.5l-6.5-6.5c-0.3-0.3-0.5-0.8-0.5-1.2c0-0.5,0.2-0.9,0.5-1.2l1-1
	c0.3-0.3,0.7-0.5,1.2-0.5s0.9,0.2,1.2,0.5l8.7,8.7C110.6-16.8,110.7-16.4,110.7-16L110.7-16z"/>
<image style="overflow:visible;" width="2552" height="3508" xlink:href="../../../../2022 _ A VOZ A SOS/todos_Desenhos_1.png"  transform="matrix(1 0 0 1 -4374.3774 -3189.6057)">
</image>
<image style="overflow:visible;" width="2552" height="3508" xlink:href="../../../../2022 _ A VOZ A SOS/todos_Desenhos_2.png"  transform="matrix(1 0 0 1 -1466.5966 -4441.8003)">
</image>
<image style="overflow:visible;" width="182" height="130" xlink:href="EC4A3C07807E3CF0.png"  transform="matrix(0.919 -0.3944 0.3944 0.919 1400.594 -2855.6785)">
</image>
<g>
	<g>
		<g>
			<path d="M2.6,9.5c5.3,2.7,9.9,6.6,13.3,11.5c0.5,0.7,1.3,1,2.1,0.5c0.7-0.4,1-1.4,0.5-2.1C14.8,14.2,9.9,9.8,4.1,6.9
				C3.4,6.5,2.5,6.7,2,7.4C1.6,8.1,1.8,9.1,2.6,9.5L2.6,9.5z"/>
		</g>
	</g>
	<g>
		<g>
			<path d="M12.1,7.2c-3.5,3.6-6.7,7.3-9.7,11.3c-0.5,0.6-0.1,1.7,0.5,2.1c0.8,0.4,1.6,0.1,2.1-0.5c2.8-3.8,5.9-7.4,9.2-10.7
				C15.6,8,13.4,5.9,12.1,7.2L12.1,7.2z"/>
		</g>
	</g>
</g>
<g>
	<g>
		<path class="st0" d="M59.2,1.7c-2.2,1.9-4.4,3.8-6.5,5.8c-1,1-2,2-3,3c-1,1-1.8,2-1.5,3.6c0.1,0.7,0.8,1.1,1.4,1.1
			c4.1,0.2,8,2.4,10.3,5.8c1.1,1.6,3.7,0.1,2.6-1.5c-2.9-4.3-7.7-7-12.8-7.3c0.5,0.4,1,0.7,1.4,1.1c0.1,0.4,0.1,0.1,0.2-0.1
			c0.2-0.2,0.4-0.4,0.6-0.7c0.4-0.4,0.8-0.8,1.1-1.2c0.9-0.9,1.8-1.8,2.7-2.6c1.8-1.7,3.6-3.3,5.5-4.9c0.6-0.5,0.5-1.6,0-2.1
			C60.7,1.1,59.8,1.2,59.2,1.7L59.2,1.7z"/>
	</g>
</g>
<g>
	<g>
		<path class="st0" d="M95.4,3.9c4.7,1.7,8.8,4.5,12.2,8.1c0.1-0.8,0.2-1.6,0.3-2.4c-4,2.8-7.3,6.6-9.4,11.1
			c-0.3,0.7-0.2,1.6,0.5,2.1c0.6,0.4,1.7,0.2,2.1-0.5c1.9-4,4.7-7.5,8.3-10c0.8-0.6,1-1.6,0.3-2.4c-3.7-4-8.4-7-13.5-8.9
			C94.4,0.4,93.6,3.3,95.4,3.9L95.4,3.9z"/>
	</g>
</g>
</svg>
