<svg id="Camada_1" data-name="Camada 1" xmlns="http://www.w3.org/2000/svg" width="120" height="24" viewBox="0 0 120 24"><path d="M2.5725,9.4907A35.3821,35.3821,0,0,1,15.8979,21.0173a1.5383,1.5383,0,0,0,2.0522.5381,1.5137,1.5137,0,0,0,.5382-2.0523A38.4349,38.4349,0,0,0,4.0866,6.9a1.537,1.537,0,0,0-2.0523.5381,1.5146,1.5146,0,0,0,.5382,2.0523Z"/><path d="M12.0775,7.2407A111.2641,111.2641,0,0,0,2.405,18.5769a1.51,1.51,0,0,0,.5381,2.0522,1.5357,1.5357,0,0,0,2.0523-.5381A105.6278,105.6278,0,0,1,14.1988,9.362c1.3514-1.3808-.7681-3.504-2.1213-2.1213Z"/><path d="M59.1571,1.7381Q55.8337,4.53,52.6985,7.5344q-1.5333,1.4735-3.0168,2.9975c-1.0206,1.0486-1.7573,2.033-1.5125,3.5618a1.5143,1.5143,0,0,0,1.4464,1.1013,13.1955,13.1955,0,0,1,10.2516,5.8223c1.0547,1.6078,3.6535.1065,2.59-1.5142a16.36,16.36,0,0,0-12.842-7.3081l1.4464,1.1012c.0573.3578.0531.1069.2236-.1027.1884-.2317.4234-.4442.6315-.6574q.5711-.5853,1.15-1.1631,1.3314-1.33,2.7019-2.6195,2.6838-2.5263,5.51-4.8941a1.5118,1.5118,0,0,0,0-2.1213,1.5321,1.5321,0,0,0-2.1213,0Z"/><path d="M95.42,3.9252a30.7622,30.7622,0,0,1,12.19,8.1109L107.914,9.68a28.1513,28.1513,0,0,0-9.3812,11.0839,1.5428,1.5428,0,0,0,.5381,2.0523,1.5126,1.5126,0,0,0,2.0523-.5382,25.2109,25.2109,0,0,1,8.305-10.0076,1.5259,1.5259,0,0,0,.3035-2.3559A33.957,33.957,0,0,0,96.2178,1.0323C94.397.38,93.6131,3.2778,95.42,3.9252Z"/></svg>