<svg id="Camada_1" data-name="Camada 1" xmlns="http://www.w3.org/2000/svg" width="120" height="24" viewBox="0 0 120 24"><path d="M17.384,17.705a1.24,1.24,0,0,1-.375.911l-1.821,1.821a1.2941,1.2941,0,0,1-1.822,0L9.428,16.499,5.49,20.437a1.2941,1.2941,0,0,1-1.822,0L1.847,18.616a1.2941,1.2941,0,0,1,0-1.822l3.938-3.938L1.847,8.918a1.2941,1.2941,0,0,1,0-1.822L3.668,5.275a1.2941,1.2941,0,0,1,1.822,0L9.428,9.213l3.938-3.938a1.2941,1.2941,0,0,1,1.822,0l1.821,1.821a1.2941,1.2941,0,0,1,0,1.822l-3.938,3.938,3.938,3.938A1.24,1.24,0,0,1,17.384,17.705Z"/><path d="M57.938,21.067l-8.732-8.719a1.7288,1.7288,0,0,1,0-2.424l8.732-8.719a1.7288,1.7288,0,0,1,2.424,0l1.004,1.004a1.6487,1.6487,0,0,1,.496,1.212,1.6487,1.6487,0,0,1-.496,1.212l-6.509,6.509,6.509,6.496a1.6849,1.6849,0,0,1,.496,1.219,1.6383,1.6383,0,0,1-.496,1.205l-1.004,1.004a1.7288,1.7288,0,0,1-2.424,0Z" fill="#fff"/><path d="M110.719,11.143a1.716,1.716,0,0,1-.496,1.219l-8.732,8.719a1.7117,1.7117,0,0,1-2.41,0l-1.018-1.004a1.7137,1.7137,0,0,1-.496-1.219,1.6383,1.6383,0,0,1,.496-1.205l6.509-6.509L98.063,4.648a1.7137,1.7137,0,0,1-.496-1.219,1.6383,1.6383,0,0,1,.496-1.205L99.081,1.22a1.6809,1.6809,0,0,1,2.41,0l8.732,8.719a1.64,1.64,0,0,1,.496,1.205Z" fill="#fff"/></svg>